<?xml version="1.0" encoding="utf-8"?>
<!-- Generator: Adobe Illustrator 23.0.4, SVG Export Plug-In . SVG Version: 6.00 Build 0)  -->
<svg version="1.1" id="レイヤー_1" xmlns="http://www.w3.org/2000/svg" xmlns:xlink="http://www.w3.org/1999/xlink" x="0px"
	 y="0px" viewBox="0 0 1401.4 334.3" style="enable-background:new 0 0 1401.4 334.3;" xml:space="preserve">
<style type="text/css">
	.st0{fill:#FFFFFF;}
</style>
<title>logo</title>
<g>
	<g id="レイヤー_1-2">
		<polygon class="st0" points="367.4,309.9 377,309.9 377,333.6 380.6,333.6 380.6,309.9 390,309.9 390,306.7 367.4,306.7 		"/>
		<path class="st0" d="M416.4,306.7L405,333.3h3.4l3.2-7.5h11.8l3.2,7.5h3.6l-11.4-26.7H416.4z M412.7,323.1l4.8-10.9l4.8,10.9
			H412.7z"/>
		<path class="st0" d="M459.9,306.7H451v26.7h3.6v-10.5h5.2c6.2,0,8.7-3.6,8.7-8S465.8,306.7,459.9,306.7z M459.9,319.9h-5.2v-10
			h5.2c2.7,0,5,2.3,5,5C464.9,317.8,462.6,320.1,459.9,319.9L459.9,319.9z"/>
		<rect x="489.5" y="306.7" class="st0" width="3.6" height="26.7"/>
		<path class="st0" d="M529.6,306c-7.7,0-14.1,6.4-14.1,14.1c0,7.7,6.4,14.1,14.1,14.1s14.1-6.4,14.1-14.1
			c0.2-7.5-5.7-13.9-13.2-14.1C530.1,306,529.9,306,529.6,306z M530.1,331.3c-6.2,0.5-11.4-4.3-11.8-10.5s4.3-11.4,10.5-11.8
			c6.2-0.5,11.4,4.3,11.8,10.5c0,0.2,0,0.5,0,0.7c0.5,5.7-3.9,10.7-9.8,11.2C530.8,331.3,530.5,331.3,530.1,331.3z"/>
		<path class="st0" d="M564.5,320.1c-0.2,7.5,5.9,13.9,13.4,13.9c0.2,0,0.5,0,0.9,0c3.2,0,6.6-0.9,9.3-2.7v-3.6
			c-2.5,2.3-5.9,3.6-9.3,3.4c-6.2-0.2-10.7-5.5-10.5-11.4c0.2-5.7,4.8-10.3,10.5-10.5c3.4,0,6.8,1.1,9.3,3.4V309
			c-2.7-1.8-5.9-2.7-9.3-2.7c-7.5-0.2-13.9,5.5-14.1,13.2C564.5,319.7,564.5,319.9,564.5,320.1z"/>
		<path class="st0" d="M619.2,306.7l-11.4,26.7h3.4l3.2-7.5h11.8l3.2,7.5h3.6l-11.4-26.7H619.2z M615.8,323.1l4.6-10.9l4.6,10.9
			H615.8z"/>
		<polygon class="st0" points="677.7,309.9 687.3,309.9 687.3,333.6 690.9,333.6 690.9,309.9 700.3,309.9 700.3,306.7 677.7,306.7 
					"/>
		<polygon class="st0" points="721.3,333.6 737.4,333.6 737.4,330.6 724.9,330.6 724.9,320.8 735.4,320.8 735.4,317.8 724.9,317.8 
			724.9,309.9 737.4,309.9 737.4,306.7 721.3,306.7 		"/>
		<path class="st0" d="M768.9,306.7l-11.4,26.7h3.4l3.2-7.5h11.8l3.2,7.5h3.6l-11.4-26.7H768.9z M765.5,323.1l4.6-10.9l4.6,10.9
			H765.5z"/>
		<path class="st0" d="M838.1,317.8c-4.1-1.1-5.5-2.7-5.5-4.6c0-2.5,1.8-4.1,5.2-4.1c2.3,0.2,4.6,0.9,6.4,2.3l0.9-2.7
			c-2.1-1.6-4.6-2.5-7.3-2.5c-5.5,0-8.7,3.2-8.7,7.1s2.3,6.4,7.5,7.7c5.2,1.4,6.4,2.7,6.4,5.5c0,2.7-2.5,4.6-5.7,4.6
			c-3.2,0-5.9-1.4-8-3.6l-0.9,3.2c2.5,2.3,5.7,3.4,8.9,3.2c4.6,0,8.9-2.7,8.9-8C846.6,321.7,843.8,319.2,838.1,317.8z"/>
		<polygon class="st0" points="865.2,309.9 874.8,309.9 874.8,333.6 878.2,333.6 878.2,309.9 887.8,309.9 887.8,306.7 865.2,306.7 
					"/>
		<path class="st0" d="M914,306.7l-11.4,26.7h3.4l3.2-7.5h11.8l3.2,7.5h3.6l-11.4-26.7H914z M910.6,323.1l4.6-10.9l4.6,10.9H910.6z"
			/>
		<polygon class="st0" points="966.6,326.7 950.9,306.7 948.9,306.7 948.9,333.6 952.1,333.6 952.1,313.5 968,333.6 970.1,333.6 
			970.1,306.7 966.6,306.7 		"/>
		<path class="st0" d="M1001.7,306.7h-8.4v26.7h8.2c10.3,0,14.8-5.9,14.8-13.4S1012,306.7,1001.7,306.7z M1001.7,330.4h-4.8v-20.5
			h4.8c8.7,0,11.2,4.8,11.2,10.3C1012.9,325.6,1010.4,330.4,1001.7,330.4L1001.7,330.4z"/>
		<path class="st0" d="M741.5,191.4c1.1-6.6,3.2-16.4,1.1-23.2c-0.7-1.8-2.1-3.2-3.6-4.1c-0.2,0-1.4,0.2-3.6,6.6l-1.1,3
			c-6.8,18.9-12.5,33.5-19.6,33.5c-6.6,0-8-7.5-8-21.4c0-8,0.9-15.9,2.5-23.7c0.9-3.6,1.4-7.5,1.4-11.4c-0.7-10.9-14.8-13.7-21-14.8
			l-1.4-0.2c-4.6-0.9-6.8-1.6-6.8-4.3c0-0.7,0.2-1.1,0.5-1.8c1.4-2.7,0.7-6.2-1.8-8c-3.2-2.7-17.3-9.3-31.7-9.3
			c-27.3,0-49.7,34.6-53.3,66.8c-3.4,8.9-13.9,33.9-26.4,33.9s-17.5-8.2-17.5-28c0.2-18.5,1.8-36.9,4.6-55.1l0.2-1.4l1.4-0.5
			c0,0,9.3-2.7,19.1-5c7.7-2.1,12.8-5.2,12.3-15.3c-0.2-2.5-3.9-3-4.8-3c-3,0.2-5.7,0.7-8.7,1.1c-4.1,0.9-8.2,1.4-12.3,1.6
			c-5.9,0-6.6-2.7-6.6-4.1c0-2.1,0.2-4.3,0.5-6.4c0.5-3.9,0.9-7.5,0.9-11.4c0-10-3-15.9-9.6-18.2l-7.5-2.7c-4.1-1.6-7.7-3-10-3.6
			c-0.7-0.2-1.6-0.5-2.5-0.5c-3-0.2-5.7,2.1-5.9,5.2c0,0.2,0,0.5,0,0.7c-0.2,5.7-0.9,11.4-1.8,16.9c-0.9,7.1-2.1,15.7-3.2,27.1
			l-0.2,2.1h-2.5c-3.6,0-10.3,0.9-10.3,4.1c0,4.3,2.5,5.7,6.4,7.3c2.3,0.9,5.2,2.3,5,5.2c-0.5,6.4-1.8,15.3-3.4,23.9
			c-1.8,8.9-3,17.8-3.4,26.7c0,4.8,0.5,9.3,1.1,13.9c-4.8,10.7-13,20.5-20.7,20.5c-10,0-13.9-6.4-13.9-22.8
			c0.2-10.7,1.1-21.4,2.7-31.9c1.1-8.7,2.1-17.5,2.3-26.2c0-5.9-6.4-10.3-10-12.3c-6.2-3.4-12.8-5.2-19.6-5.5
			c-2.1,0-4.1,0.2-5.9,0.9c-6.6,2.7-7.7,13.7-9.1,27.3c-0.7,7.5-1.8,14.8-3.2,22.1c-6.6,29.2-13,47.4-23.9,47.4
			c-8,0-11.8-4.8-11.8-14.8c0-11.2,3.9-29.6,7.3-45.8c2.3-10.9,4.6-21.4,4.6-25.5c0-11.2-23-15.5-29.2-16.2h-1.6
			c-4.6-0.2-8.7,3-9.6,7.3c-0.5,3.4-1.8,9.1-3.6,15.9c-3.9,16.4-10,41.5-10,59c0,1.6,0,3.2,0.2,4.8c-4.8,8.7-11.8,15.7-18.5,15.7
			c-10,0-13.9-6.4-13.9-22.8c0.2-10.7,1.1-21.4,2.7-31.9c1.1-8.7,2.1-17.5,2.3-26.2c0-5.9-6.4-10.3-10-12.3
			c-6.2-3.4-12.8-5.2-19.6-5.5c-2.1,0-4.1,0.2-5.9,0.9c-6.6,2.7-7.7,13.7-9.1,27.3c-0.7,7.5-1.8,15-3.4,22.3
			c-6.6,29.2-13,47.4-23.9,47.4c-8,0-11.8-4.8-11.8-14.8c0-11.2,3.9-29.6,7.3-45.8c2.3-10.9,4.6-21.4,4.6-25.5
			c0-11.2-23-15.5-29.2-16.2h-1.6c-4.6-0.5-8.7,3-9.6,7.3c-0.5,3.4-1.8,9.1-3.6,15.9c-4.1,16.6-10,41.5-10,59
			c0,26.4,17.8,43.7,45.3,43.7c19.8,0,26-10.9,32.6-22.6l1.8-3.4l2.1,2.7c0.2,0.2,15.9,20.7,41.2,20.7c13.2,0,25.3-10.5,33.7-21.6
			c6.6,14.8,21.4,23.9,41.2,23.9s26-10.9,32.6-22.6l1.8-3.4l2.1,2.7c0.2,0.2,15.9,20.7,41.2,20.7c14.8,0,28.3-13.2,36.7-25.7
			c7.1,15.7,20.5,24.2,39.4,24.2c20.5,0,37.6-8,47.4-21c6.6,11.6,17.8,20.3,32.1,20.3c12.8,0,20.7-7.7,29.4-20.1
			c0.7-1.1,1.8-1.6,3.2-1.6c1.4,0,2.5,0.7,3.4,1.8c3.2,5.5,13,17.8,34.2,17.8c30.1,0,37.1-31,38.3-37.1
			C741.3,193.2,741.5,192.3,741.5,191.4z M640.6,211c-7.1,0-10.5-3.4-10.5-10c0-15.3,12.5-48.5,37.4-59.9c1.6-0.7,3.6-0.5,5,0.9
			c0.7,0.9,1.1,2.1,1.1,3.2C672,167.5,653.8,211,640.6,211L640.6,211z"/>
		<path class="st0" d="M1400.9,170c-0.2-2.5-1.1-5-2.3-7.1c-1.6,3.4-3,7.1-4.1,10.7l-0.2,0.5c-2.3,6.8-18.2,43.3-31.4,43.3
			c-7.7,0-10.7-6.8-10.7-23.7c0.2-11.2,0.9-22.6,2.3-33.7c0.9-9.3,1.8-18,1.8-25.1c0-13-22.3-17.3-32.6-17.3c-7.7,0-7.7,3.6-7.7,4.8
			c0,0.5,0,0.9,0.2,1.6c0.5,3,0.7,5.9,0.7,8.9c-0.2,3.9-0.7,7.5-1.1,11.4c-2.1,12.8-3.2,25.7-3.2,38.7
			c-5.5,14.4-10.5,24.6-16.4,24.6c-6.6,0-8-7.5-8-21.4c0-8,0.9-15.9,2.5-23.7c0.9-3.6,1.4-7.5,1.4-11.4c-0.7-10.9-14.8-13.7-21-14.8
			l-1.4-0.2c-4.6-0.9-6.8-1.6-6.8-4.3c0-0.7,0.2-1.1,0.5-1.8c1.4-2.7,0.7-6.2-1.8-8c-3.2-2.7-17.3-9.3-31.7-9.3
			c-29.2,0-52.9,39.6-53.8,73.4c-6.6,15.5-12.5,25.3-19.1,25.3c-5.7,0-10-6.2-10-14.1c0-5.9,0.5-13,1.1-20.5
			c0.7-8.2,1.1-16.9,1.1-24.8c0-14.8-4.1-30.1-34.9-30.1c-25.1,0-34.4,19.8-40.6,32.8c-1.1,2.3-2.3,4.6-3.4,6.8l-4.3,7.1v-8
			c0-21.4,1.1-43.1,3.6-64.3c0.9-8,1.6-14.4,1.6-19.8c0-12.8-27.8-18.5-34.9-18.5c-2.3,0-7.7,0.2-7.7,3.6c0,1.6,0.2,3,0.5,4.6
			c0.5,2.3,0.7,4.8,0.7,7.3c-0.2,5-0.9,10.3-1.8,15.3c-4.1,23.7-6.2,47.6-5.9,71.5c0,53.5,9.8,75.4,33.7,75.4
			c12.5,0,18.9-7.3,20.7-11.4c0.7-1.8,0.7-2.5,0.7-8.4c0-3.2-0.2-8-0.2-15c0-15,11.8-43.3,19.8-43.3c1.1,0,2.1,0.5,3,1.4
			c1.4,2.1,1.6,4.3,0.9,6.6c-0.7,5.2-0.9,10.3-0.7,15.5c0.7,30.5,18.9,50.1,46,50.1c16.6,0,27.6-11.8,33.9-23.7
			c5.9,14.6,18.2,26.2,35.1,26.2c12.8,0,20.7-7.7,29.4-20.1c0.7-1.1,1.8-1.6,3.2-1.6s2.5,0.7,3.4,1.8c3.2,5.5,13,17.8,34.2,17.8
			c17.1,0,27.1-9.6,32.8-20.1c6.2,14.4,18.2,22.3,34.6,22.3c24.8,0,34.9-13.7,42.2-28.7c3.4-6.8,5.7-14.1,6.6-21.9
			C1401.1,178.6,1401.1,174.3,1400.9,170z M1222.1,211c-7.1,0-10.5-3.4-10.5-10c0-15.3,12.5-48.5,37.4-59.9c1.6-0.7,3.6-0.5,5,0.9
			c0.7,0.9,1.1,2.1,1.1,3.2C1253.5,167.5,1235.3,211,1222.1,211L1222.1,211z"/>
		<path class="st0" d="M1338.3,100.7c12.5,0,22.6-10,22.6-22.6s-10-22.6-22.6-22.6c-12.5,0-22.6,10-22.6,22.6l0,0
			C1315.7,90.7,1325.7,100.7,1338.3,100.7z"/>
		<path class="st0" d="M1008.6,166.8c-0.9-5.7-3.4-8.4-8-8.4c-1.8,0-4.3,5.7-9.8,16.6c-6.6,14.1-26.7,37.6-58.6,37.6
			c-27.3,0-59.7-25.3-65.4-72.5C860.2,87,893,51.3,918.6,42.8c5.5-1.8,11.4-2.7,17.3-2.7c6.4,0,15.3,0.9,21.9,6.6
			c1.6,1.4,1.8,3.9,0.5,5.5c-0.2,0.2-0.5,0.5-0.7,0.7c-5.2,4.6-8.2,11.6-7.5,18.7c0.9,9.1,10.5,17.3,21.2,18h2.3
			c10,0,16.2-4.1,21-14.1c6.8-16.2-1.8-40.8-31-54.5c-14.6-6.6-33-7.3-40.3-7.3c-3.2,0-6.6,0.2-9.8,0.5
			c-40.6,4.3-100.9,41.2-100.9,124.2c0,72.7,54.2,105.3,107.8,105.3c47.2,0,76.8-35.1,83.2-51.5
			C1007.4,183.9,1009.7,173.6,1008.6,166.8z"/>
		<path class="st0" d="M148.9,46.7l-2.1-1.4c-3.4-2.3-7.3-3.6-11.2-3.9c-12.5,0-22.6,10.3-22.6,22.6c0,10.3,5.7,15.7,10.7,19.1
			c7.1,4.6,15.3,6.8,23.7,6.8c22.6,0,41-19.4,41-43.3c0-22.6-20.3-46.7-64.9-46.7c-20.1,0.5-39.2,7.1-55.4,18.7
			c-13.9,10-30.5,28-30.5,56.7c0,32.1,28.5,41,53.5,48.8l2.1,0.7c21.2,6.6,43.7,15.9,43.7,41.5c0,18.9-10.5,36-26.2,42.4
			c-10.9,4.3-22.6,6.2-34.4,5.9c-11.4,0-34.6-5.5-40.3-16.6l-1.4-2.7l3-0.7c13.4-3.2,21-12.3,21.2-25.3c0.2-10.9-6.4-20.7-16.6-24.6
			c-3.2-1.1-6.4-1.8-9.8-1.8c-5.7,0-11.4,1.8-15.9,5.5C1.3,158.6-3.8,175.9,2.9,196.4c3.9,12.3,15.9,25.5,31.2,34.4
			c18.7,10.5,39.9,15.9,61.3,16.2l0,0c9.6,0,19.4-0.9,28.7-2.7c23.7-4.8,64-24.8,64-69.7c-0.2-35.5-30.1-50.8-58.3-62.4
			c-29.6-12.3-45.3-28.5-45.3-46.9c0-20.7,14.1-42.8,39.9-42.8c13.4,0,24.2,7.7,26.4,15c0.9,2.3,0.7,5-0.7,7.1L148.9,46.7z"/>
	</g>
</g>
</svg>
