<?xml version="1.0" encoding="utf-8"?>
<!-- Generator: Adobe Illustrator 23.0.4, SVG Export Plug-In . SVG Version: 6.00 Build 0)  -->
<svg version="1.1" id="レイヤー_1" xmlns="http://www.w3.org/2000/svg" xmlns:xlink="http://www.w3.org/1999/xlink" x="0px"
	 y="0px" viewBox="0 0 190 55" style="enable-background:new 0 0 190 55;" xml:space="preserve">
<style type="text/css">
	.st0{fill:#94CFCA;}
</style>
<path class="st0" d="M162.5,27.5c-0.4,0-0.8,0-1.4,2.3c-0.6,2.3-2.4,4.7-3.8,4.7c-1.3,0-2-0.6-2-3.6c0-3,0.9-7.8,0.9-10.3
	c0-2.2-4.9-3.4-6.9-3.4s-1.5,5-2.5,9.1c-1.1,4.8-2.2,8.9-3.8,8.9c-1.3,0-1.7-1.4-1.7-3.1c0-3.3,2.1-11.1,2.1-13c0-1.8-5.1-3-6.2-3
	c-1.1,0-1.6,0.2-1.6,0.6c0,2.1-2.6,10-2.6,14.5c0,0.1,0,0.2,0,0.2c-0.7,1.3-1.9,2.8-2.9,2.8c-1,0-1.5-0.5-1.5-2.9
	c0-3,1.5-6.6,1.5-8.6c0-2.2-2.1-5.3-7.5-5.3c-5.4,0-7,6.7-8,7.9c0-2,0.4-2.9,0.4-4.6s-3.3-2.2-3.3-2.2s-0.8-0.8-2.4-0.8
	c-1.5,0-2,0.6-2,1c0,0.4,0.5,0.8,0.5,1.8c0,1.2-0.6,6.1-0.9,9.8c-1.4,3.1-3.5,4.6-6.6,4.6c-3.7,0-4.9-2.2-5.2-3.7
	c0,0.1,1.1,0.5,3.5,0.5c3.9,0,6.6-3.5,6.6-7.9c0-4.4-3.8-6.6-5.9-6.6c-4.2,0-3.4-0.6-5.2-0.6c-2,0-7.3,3.6-7.3,11.3
	c0,1.1,0.1,2.2,0.4,3.2c-1,1.2-2,2-2.7,2c-0.9,0-2-0.8-2-2.5c0-7.6,2.8-16.3,2.8-20.1c0-3.8-4.2-8-7.9-8c-6.5,0-10,11.5-10.2,12.1
	v-2.5c0-5.5-0.6-11.5-8.2-11.5c-4.9,0-7.5,5.3-9,10.2c0-8.4-5.3-11-10.4-11c-5.6,0-13.9,5.9-13.9,17.2c0,5.8,4.8,8.9,9.4,8.9
	s6.5-2.5,6.5-3.2s-0.5-1.4-1.1-1.4c-0.6,0-1.2,0.9-2.9,0.9c-2.4,0-3.9-2.8-3.9-6.4c0-6.7,3.2-12,6.3-12s3.9,5.3,3.9,22.4
	c0,7.9,0,12.9,2.6,12.9c2.7,0,7-2.1,7-3.3c0-1.2-1.1-4.8-1.1-9.3c0-7.7,2.6-21,5-21c1,0,1.5,1.2,1.5,3.3c0,3.1-0.6,14.2-0.6,18.7
	c0,4.4,2.6,7.4,6.4,7.4c1.8,0,2.2-1.1,2.8-5.8c1.2-9.6,5.3-21.6,7.7-21.6c0.9,0,1.4,0.6,1.4,1.9c0,4-3.4,11.5-3.4,21.7
	c0,5.3,4.2,8.3,8.6,8.3c2.6,0,4.7-1.1,7.1-4.2c0-0.1,0.1-0.1,0.1-0.2c2,2.4,5.2,3.8,10,3.8c3.8,0,6.5-1.4,8.3-3.1
	c1,1.7,2.8,2.8,4.8,2.8c1.7,0,4.3-1.3,4.3-2.3c0-1,0-2.8,0.5-6.8c0.7-4.7,3.2-7.9,3.7-7.9c0.5,0,0.8,0.2,0.8,0.7
	c0,1.6-1.5,4.1-1.5,9c0,4.8,2.2,7.8,6.7,7.8c3.3,0,5.8-1.8,7.3-3.6c1.3,2.4,3.8,3.9,7.4,3.9c3.8,0,5-2.2,6.2-4.2
	c0,0,2.9,3.9,7.7,3.9c4.8,0,8.5-6.8,8.5-8.4C163.9,28.9,162.9,27.5,162.5,27.5z M98,20.8c0.5,0,0.9,0.4,0.9,0.8c0,2-1.5,6.9-2.6,6.9
	c-0.7,0-1.1-0.3-1.1-1.2C95.2,25.8,96.8,20.8,98,20.8z"/>
</svg>
