<svg xmlns="http://www.w3.org/2000/svg" viewBox="0 0 50 50"><defs><style>.cls-1{fill:none;}</style></defs><title>icn_ice</title><g id="レイヤー_2" data-name="レイヤー 2"><g id="レイヤー_1-2" data-name="レイヤー 1"><path d="M27.54,38.36H22.46a5.64,5.64,0,0,1-5.61-5L14.5,12.2a.52.52,0,0,1,.13-.39.48.48,0,0,1,.37-.17H35a.48.48,0,0,1,.37.17.52.52,0,0,1,.13.39L33.15,33.34A5.64,5.64,0,0,1,27.54,38.36Zm-12-25.72,2.29,20.59a4.64,4.64,0,0,0,4.61,4.13h5.08a4.64,4.64,0,0,0,4.61-4.13l2.29-20.59Z"/><path class="cls-1" d="M25,20.73l2.92,1.52a1,1,0,0,0,1.35-.42L30.74,19h-6l-.22.42A1,1,0,0,0,25,20.73Z"/><path d="M30.77,18.91a1,1,0,0,0-.43-1.35L27.42,16a1,1,0,0,0-1.35.43L24.77,19h6Z"/><path d="M30.74,19l-1.5,2.87a1,1,0,0,1-1.35.42L25,20.73a1,1,0,0,1-.42-1.35l.22-.42h-7l1.57,14.1a3.13,3.13,0,0,0,3.12,2.8h5.08a3.13,3.13,0,0,0,3.12-2.8L32.23,19Zm-8.47,8.77A1,1,0,0,1,21,27.12L20.24,25a1,1,0,0,1,.62-1.28L23,22.93a1,1,0,0,1,1.28.61l.75,2.16A1,1,0,0,1,24.44,27ZM28.69,31l-.84,2.13a1,1,0,0,1-1.3.56l-2.13-.85a1,1,0,0,1-.56-1.3l.85-2.13A1,1,0,0,1,26,28.85l2.13.85A1,1,0,0,1,28.69,31Z"/><rect class="cls-1" width="50" height="50"/></g></g></svg>