<svg xmlns="http://www.w3.org/2000/svg" viewBox="0 0 50 50"><defs><style>.cls-1{fill:none;}</style></defs><title>icn_extra_tapioca</title><g id="レイヤー_2" data-name="レイヤー 2"><g id="レイヤー_1-2" data-name="レイヤー 1"><path d="M27.54,43.21H22.46a5.64,5.64,0,0,1-5.61-5L14.5,17.05a.5.5,0,0,1,.13-.39.48.48,0,0,1,.37-.17H35a.48.48,0,0,1,.37.17.5.5,0,0,1,.13.39L33.15,38.19A5.64,5.64,0,0,1,27.54,43.21Zm-12-25.72,2.29,20.59a4.64,4.64,0,0,0,4.61,4.13h5.08a4.64,4.64,0,0,0,4.61-4.13l2.29-20.59Z"/><circle cx="21.43" cy="21.28" r="2.14"/><circle cx="19.73" cy="12.83" r="2.14"/><circle cx="28.87" cy="16.67" r="2.14"/><circle cx="26.12" cy="8.94" r="2.14"/><path class="cls-1" d="M27.71,26.13A2.14,2.14,0,0,0,29.86,24c0-.06,0-.12,0-.18H25.59a1.1,1.1,0,0,0,0,.18A2.14,2.14,0,0,0,27.71,26.13Z"/><path d="M29.84,23.81c0,.06,0,.12,0,.18a2.15,2.15,0,0,1-4.29,0,1.1,1.1,0,0,1,0-.18H17.77l1.57,14.1a3.14,3.14,0,0,0,3.12,2.8h5.08a3.14,3.14,0,0,0,3.12-2.8l1.57-14.1ZM20,31a2.15,2.15,0,1,1,2.15,2.14A2.14,2.14,0,0,1,20,31Zm2.71,7.86a2.14,2.14,0,1,1,2.15-2.14A2.14,2.14,0,0,1,22.71,38.85Zm4.72-3a2.14,2.14,0,1,1,2.14-2.14A2.14,2.14,0,0,1,27.43,35.85Z"/><path d="M27.71,21.85a2.13,2.13,0,0,0-2.12,2h4.25A2.14,2.14,0,0,0,27.71,21.85Z"/><rect class="cls-1" width="50" height="50"/></g></g></svg>