<svg xmlns="http://www.w3.org/2000/svg" viewBox="0 0 50 50"><defs><style>.cls-1{fill:none;}</style></defs><title>icn_size_l</title><g id="レイヤー_2" data-name="レイヤー 2"><g id="レイヤー_1-2" data-name="レイヤー 1"><path d="M28.34,43.28H21.65a7.26,7.26,0,0,1-7.22-6.47L11.33,9a.52.52,0,0,1,.13-.39.51.51,0,0,1,.37-.16H38.17a.51.51,0,0,1,.37.16.52.52,0,0,1,.13.39l-3.1,27.84A7.26,7.26,0,0,1,28.34,43.28ZM12.39,9.42l3,27.28a6.26,6.26,0,0,0,6.23,5.58h6.69a6.26,6.26,0,0,0,6.24-5.58l3-27.28Z"/><path d="M14.41,14l2.5,22.5a4.76,4.76,0,0,0,4.74,4.24h6.69a4.77,4.77,0,0,0,4.75-4.24L35.59,14ZM28.5,30H22.35V20.58h1.92v8H28.5Z"/><rect class="cls-1" width="50" height="50"/></g></g></svg>