<svg xmlns="http://www.w3.org/2000/svg" viewBox="0 0 50 50"><defs><style>.cls-1{fill:none;}</style></defs><title>icn_sweetness</title><g id="レイヤー_2" data-name="レイヤー 2"><g id="レイヤー_1-2" data-name="レイヤー 1"><path d="M34,27.14a.5.5,0,0,1-.48-.38c-.45-1.73.94-3.56,2.5-5.29,1.27-1.39,2.48-3.4,1-5.06a2.43,2.43,0,0,0-1.77-.92c-1.24,0-2.8.86-4.54,2.6a.5.5,0,1,1-.7-.7c2-2,3.77-2.94,5.28-2.9a3.39,3.39,0,0,1,2.48,1.26c1.51,1.73,1.13,4-1.05,6.4-1.86,2-2.54,3.35-2.27,4.36a.5.5,0,0,1-.36.61Z"/><path d="M29.92,38.89H20.13c-1.9,0-4.92-4.35-4.92-9.51A12.7,12.7,0,0,1,18.1,21.5,8.63,8.63,0,0,0,19,20.16a5.76,5.76,0,0,0-.35-4.95A2.22,2.22,0,0,0,17.06,14a.49.49,0,0,1-.44-.35.51.51,0,0,1,.17-.54c.09-.07,2.3-1.78,6.24-.07l.32.15c3,1.31,4.83,2.1,7.52,1.74a.5.5,0,0,1,.49.77,4,4,0,0,0-.29,4.47s0,0,0,0A9.25,9.25,0,0,0,32,21.5a12.64,12.64,0,0,1,2.9,7.88C34.85,34.54,31.82,38.89,29.92,38.89ZM18.35,13.42a4.2,4.2,0,0,1,1.13,1.28,6.76,6.76,0,0,1,.4,5.87,8.6,8.6,0,0,1-1,1.51,11.63,11.63,0,0,0-2.71,7.3c0,4.83,2.78,8.51,3.92,8.51h9.79c1.14,0,3.93-3.68,3.93-8.51a11.69,11.69,0,0,0-2.71-7.3,10.41,10.41,0,0,1-1-1.49A4.73,4.73,0,0,1,30,16c-2.47.12-4.37-.72-7.09-1.91l-.32-.14A6.27,6.27,0,0,0,18.35,13.42Z"/><path d="M19.84,26.39a13,13,0,0,1-1.74-.12,9,9,0,0,0-.53,3.11c0,3.95,2,6.7,2.74,7.15h9.44c.73-.45,2.74-3.2,2.74-7.15A10.33,10.33,0,0,0,30,22.89C26,23.69,25.21,26.39,19.84,26.39Z"/><rect class="cls-1" width="50" height="50"/></g></g></svg>