<?xml version="1.0" encoding="utf-8"?>
<!-- Generator: Adobe Illustrator 23.0.4, SVG Export Plug-In . SVG Version: 6.00 Build 0)  -->
<svg version="1.1" id="レイヤー_1" xmlns="http://www.w3.org/2000/svg" xmlns:xlink="http://www.w3.org/1999/xlink" x="0px"
	 y="0px" viewBox="0 0 190 55" style="enable-background:new 0 0 190 55;" xml:space="preserve">
<style type="text/css">
	.st0{fill:#94CFCA;}
</style>
<g>
	<path class="st0" d="M51.9,18c0,0-1.6-2.2-6.5-2.2c-3.7,0-8.2,5.8-8.2,11.9c0,0.7,0.1,1.4,0.2,2.1c-0.1,0-0.1,0-0.2,0
		c-1.2,0-4.7,4.7-9.5,4.7c-5.9,0-7.1-0.4-7.1-0.4s1.9-2.5,1.9-7.5c0-5.6-3-8.3-3-13.9c0-5.7,2.6-9.1,5.4-9.1c1.8,0,4.6,2.6,4.6,8.7
		c0,3.2-1.5,4.5-2.6,4.5c-1.6,0-2-0.6-2.5-0.6c-0.6,0-1.3,0.9-1.3,1.8c0,0.8,2.7,2.7,5.5,2.7c3.2,0,8.5-2.6,8.5-9.2S32.8,0,25.5,0
		c-2.3,0-3.8,1.1-5,1.1c-4.2,0-10,5.3-10,12.2s2.2,9.6,2.2,14.3c0,4.7-1.5,6.1-1.5,6.1c-4.7,0-7.4,1.3-7.4,3.8
		c0,1.7,1.8,4.2,4.8,4.2c4.7,0,8-3.4,8.6-3.4c3.1,0,6.6,2.9,11.7,2.9c8,0,8.7-8,8.7-8s0.5-0.5,0.8-1c1.7,3.7,5.4,6,9.4,6
		c6.9,0,11.3-7,11.3-12.3C59,20.7,55.1,18.5,51.9,18z M48.1,33.5c-1.5,0-2.1-1.9-2.1-3.4c0-4.8,2.3-9.2,3.8-9.2c1.1,0,2,0.6,2,2.1
		C51.8,27.4,49.6,33.5,48.1,33.5z"/>
	<path class="st0" d="M127.7,15.6c3,0,3.1-2.7,3.1-5.4c0-2.7-2.7-3.6-4.4-3.6c-1,0-3.8,0.5-3.8,3.6
		C122.6,13.4,124.8,15.6,127.7,15.6z"/>
	<path class="st0" d="M149.1,18c0,0-1.7-2.2-6.5-2.2c-3.7,0-8.2,5.8-8.2,11.9c0,1,0.1,2,0.4,2.9c-1.1,2.1-2.6,4.3-3.8,4.3
		c-0.7,0-1.5-0.2-1.5-3.8s0.8-7.7,0.8-10.4c0-2.7-4.2-3.5-6.2-3.5c-1,0-1.8,0.3-1.8,1.2c0,0.3,0.2,0.5,0.2,1.8c0,1.2-0.6,3.3-0.7,7
		c-0.1,0.2-0.2,0.5-0.3,0.8c-1,2.6-2.8,6.1-4.5,6.1c-1.7,0-2.7-0.8-2.7-4.5c0-4.6,0.8-9.7,0.8-9.7s1.7-0.5,3.4-0.9
		c1.4-0.4,2.8-2.1,2.8-3.4c0-0.4-0.3-0.7-0.8-0.7c-0.9,0-3.2,0.5-4.5,0.5c-0.5,0-0.8-0.1-0.8-0.3c0-0.8,0.2-1.7,0.2-3.2
		s-0.2-3-2-3.5c-1.7-0.5-4.6-1.7-4.9-1.7c-0.3,0-0.6,0.1-0.6,0.3c0,0.4,0.3,0.9,0.3,1.5c0,0.7-0.5,3.6-0.9,7.9c0,0-2.3,0-2.3,1
		s2,1.5,2,2.2c-0.1,2-0.8,5.3-1.1,7.6c-0.9,2.4-2.3,6.1-3.1,6.1c-0.7,0-1-0.5-1-3.7c0-3.2,0.8-5.7,0.8-7.2c0-1.5-3.4-1.9-4.4-2.1
		c-0.7-0.2-0.9-0.2-0.9-0.4c0-0.2,1.1-0.5,1.1-1.3c0-0.9-4.8-2.5-7.5-2.5c-4.1,0-8.4,4.7-9.6,10.6c0,0.1-0.1,0.2-0.1,0.2
		c-1.7,3-4.1,7.2-8.6,7.2c-2.2,0-4.3-1.4-4.3-4.7c0-4.2,2.5-7.2,3.3-7.2c0.6,0,1,0.6,1,2c0,1.1-0.4,1.3-0.4,2c0,0.6,1.2,1.1,3,1.1
		c1.8,0,3.4-1.5,3.4-4.1c0-4.2-3.8-7-6.6-7c-2.8,0-4.4,1.2-4.4,1.2s-0.6-0.3-1.8-0.3c-1.7,0-5.7,4.4-5.7,11.1
		c0,6.8,4.7,10.3,11.6,10.3c4.7,0,8-2.5,9.9-5c1.1,2.8,3.4,4.9,6.6,4.9c2.7,0,4.2-1.8,5.8-4.1c0,0,1.7,3.8,6.6,3.8
		c3.3,0,5.2-1.9,6.2-3.9c1.4,2.9,4,4.3,7.3,4.3c1.2,0,2.3-0.4,2.3-0.4c2.7,0,4.7-1.6,6.1-3.4c1.2,2.3,3.3,3.8,6.3,3.8
		c4.4,0,6.3-2.4,7.5-4.5c1.9,2.6,5,4.2,8.3,4.2c6.9,0,11.3-7,11.3-12.3C156.2,20.7,152.3,18.5,149.1,18z M89.8,34.1
		c-0.9,0-1.5-0.6-1.5-1.7c0-2.6,2.3-8.8,6.9-10.5C95.3,26,91.8,34.1,89.8,34.1z M145.3,33.5c-1.5,0-2-1.9-2-3.4
		c0-4.8,2.2-9.2,3.8-9.2c1.1,0,2,0.6,2,2.1C149,27.4,146.8,33.5,145.3,33.5z"/>
	<path class="st0" d="M185.6,30.1c0-1.2-0.5-1.8-0.8-1.8c-0.2,0-0.6,0.4-0.6,1.2c0,0.9-2,4.7-3.6,4.7c-1,0-1.5-0.5-1.5-2.9
		c0-3,1.5-6.6,1.5-8.7c0-2.2-2.1-5.3-7.5-5.3s-7,6.7-8,7.9c0-2,0.4-2.9,0.4-4.5s-3.3-2.2-3.3-2.2s-0.9-0.8-2.4-0.8s-2,0.6-2,1
		c0,0.4,0.5,0.8,0.5,1.8c0,1.5-1,9.4-1,12.6c0,3.3,2.6,5.5,5.5,5.5c1.7,0,4.3-1.3,4.3-2.3c0-1,0-2.8,0.5-6.8
		c0.7-4.7,3.3-7.9,3.7-7.9c0.5,0,0.8,0.2,0.8,0.7c0,1.6-1.6,4.1-1.6,9c0,4.8,2.2,7.8,6.7,7.8c5.8,0,9-5.5,9-6.9
		C186.1,30.7,185.7,31.3,185.6,30.1z"/>
</g>
</svg>
